<?xml version="1.0" encoding="UTF-8"?>
<svg width="89px" height="98px" viewBox="0 0 89 98" version="1.1" xmlns="http://www.w3.org/2000/svg" xmlns:xlink="http://www.w3.org/1999/xlink">
    <!-- Generator: Sketch 46.1 (44463) - http://www.bohemiancoding.com/sketch -->
    <title>icn_app_webpack</title>
    <desc>Created with Sketch.</desc>
    <defs></defs>
    <g id="EXPORS" stroke="none" stroke-width="1" fill="none" fill-rule="evenodd">
        <g id="icn_app_webpack" fill-rule="nonzero">
            <g id="webpack-icon" transform="translate(-5.000000, -7.000000)">
                <polygon id="Shape" fill="#FFFFFF" points="50 0 100 28.3088235 100 84.9264706 50 113.235294 0 84.9264706 0 28.3088235"></polygon>
                <path d="M90.691782,82.1604931 L51.3586458,104.411765 L51.3586458,87.081176 L75.8654193,73.5986931 L90.691782,82.1604931 Z M93.3823529,79.7236731 L93.3823529,33.1888785 L78.9887394,41.4966471 L78.9887394,71.4064959 L93.3823529,79.7236731 Z M8.57292385,82.1604931 L47.9060601,104.411765 L47.9060601,87.081176 L23.3992866,73.5986931 L8.57292385,82.1604931 L8.57292385,82.1604931 Z M5.88235294,79.7236731 L5.88235294,33.1888785 L20.2759665,41.4966471 L20.2759665,71.4064959 L5.88235294,79.7236731 Z M7.56631166,30.1781356 L47.9060601,7.35294118 L47.9060601,24.109607 L22.0634087,38.3259585 L21.8658493,38.4388614 L7.56631166,30.1781356 L7.56631166,30.1781356 Z M91.6983942,30.1781356 L51.3586458,7.35294118 L51.3586458,24.109607 L77.2012971,38.3259585 L77.3988565,38.4388614 L91.6983942,30.1781356 L91.6983942,30.1781356 Z" id="Shape" stroke="#FFFFFF" fill="#000000"></path>
                <path d="M48.2849368,83.0882353 L24.2647059,69.8307194 L24.2647059,43.5596334 L48.2849368,57.483309 L48.2849368,83.0882353 M51.7150632,83.0882353 L75.7352941,69.8307194 L75.7352941,43.5596334 L51.7150632,57.483309 L51.7150632,83.0882353 M25.8909783,40.5196934 L50.0046732,27.2058824 L74.1183681,40.5196934 L50.0046732,54.4996642 L25.8909783,40.5196934" id="Shape" stroke="#FFFFFF" fill="#000000"></path>
            </g>
        </g>
    </g>
</svg>