<svg xmlns="http://www.w3.org/2000/svg" width="150" height="120" viewBox="0 0 150 59">
  <path fill="#000000" d="M0,0 L150,0 L150,50.8307692 L75,50.8307692 L75,59 L41.7,59 L41.7,50.8307692 L0,50.8307692 L0,0 Z M8.4912753,42.2056243 L25.0608714,42.2057226 L25.0608716,16.8102474 L33.3912753,16.8102474 L33.3912753,42.2057229 L41.6467431,42.2057229 L41.6467431,8.62094212 L8.4912753,8.62094212 L8.4912753,42.2056243 Z M49.8999999,8.47179487 L50.0000001,50.8307692 L66.5000001,50.8307692 L66.5000001,42.3793393 L83.2037535,42.3793393 L83.2037535,8.47179487 L49.8999999,8.47179487 Z M66.3,16.6410256 L75,16.6410256 L75,33.8871795 L66.3,33.8871795 L66.3,16.6410256 Z M91.5999999,8.47179487 L91.5999999,42.0564103 L108.199395,42.0564103 L108.199395,16.8425358 L116.499399,16.8425358 L116.499399,42.0565758 L124.790366,42.0565758 L124.790366,16.9435897 L133.099398,16.9435897 L133.099398,42.0564103 L141.40161,42.0564103 L141.40161,8.47179487 L91.5999999,8.47179487 Z"/>
</svg>
